<svg xmlns="http://www.w3.org/2000/svg" viewBox="0 0 1600 1000" preserveAspectRatio="xMidYMid slice">
  <defs>
    <filter id="softShadow" x="-20%" y="-20%" width="140%" height="140%">
      <feGaussianBlur in="SourceAlpha" stdDeviation="1.2"/>
      <feOffset dx="0" dy="1" result="offset"/>
      <feComponentTransfer>
        <feFuncA type="linear" slope="0.35"/>
      </feComponentTransfer>
      <feMerge>
        <feMergeNode/>
        <feMergeNode in="SourceGraphic"/>
      </feMerge>
    </filter>
    <linearGradient id="paper" x1="0" x2="1" y1="0" y2="1">
      <stop offset="0" stop-color="#f7f3f1"/>
      <stop offset="0.52" stop-color="#ece6e3"/>
      <stop offset="1" stop-color="#fbfaf8"/>
    </linearGradient>
  </defs>
  <rect width="1600" height="1000" fill="url(#paper)"/>
  <g opacity="0.22">
    <circle cx="1240" cy="160" r="330" fill="#be1e2d"/>
    <circle cx="220" cy="820" r="260" fill="#1a2b4f"/>
  </g>
  <g fill="none" stroke-linecap="round" filter="url(#softShadow)">
    <path d="M-80 780 C170 620 280 420 510 470 C720 516 770 255 982 312 C1188 367 1255 608 1680 405" stroke="#080808" stroke-width="16" opacity="0.88"/>
    <path d="M-120 520 C118 455 290 225 500 300 C710 375 780 148 1010 194 C1235 239 1360 365 1710 190" stroke="#121212" stroke-width="10" opacity="0.82"/>
    <path d="M-110 880 C130 702 342 690 510 760 C690 834 855 650 1042 705 C1252 766 1400 824 1715 710" stroke="#000" stroke-width="12" opacity="0.86"/>
    <path d="M-60 250 C120 120 322 95 492 170 C692 258 812 388 1016 332 C1218 277 1358 70 1665 88" stroke="#0d0d0d" stroke-width="9" opacity="0.80"/>
    <path d="M90 1060 C210 842 428 888 586 768 C745 647 782 498 1000 486 C1230 473 1365 564 1648 498" stroke="#151515" stroke-width="8" opacity="0.78"/>
    <path d="M-80 90 C198 58 318 274 512 238 C726 198 780 20 998 52 C1228 86 1378 236 1680 244" stroke="#050505" stroke-width="7" opacity="0.74"/>
    <path d="M-70 660 C165 586 268 532 464 598 C668 666 760 808 975 778 C1205 746 1315 612 1662 650" stroke="#0a0a0a" stroke-width="6" opacity="0.76"/>
    <path d="M-88 380 C155 310 300 338 498 410 C690 479 828 438 1008 392 C1235 334 1398 450 1700 330" stroke="#171717" stroke-width="5" opacity="0.72"/>
  </g>
  <g fill="none" stroke="#000" stroke-linecap="round" opacity="0.34">
    <path d="M-30 720 C205 592 338 520 548 556 C742 589 875 608 1060 540 C1280 458 1390 430 1650 392" stroke-width="2.2"/>
    <path d="M-20 735 C210 608 350 538 555 574 C750 608 888 625 1070 558 C1290 477 1405 448 1660 410" stroke-width="1.8"/>
    <path d="M60 458 C245 405 350 282 535 330 C742 383 838 300 1020 272 C1230 240 1366 300 1570 242" stroke-width="2"/>
    <path d="M65 474 C250 422 358 300 542 348 C748 400 848 318 1028 290 C1240 258 1374 318 1580 260" stroke-width="1.7"/>
    <path d="M120 205 C310 176 395 225 555 250 C742 280 886 158 1045 166 C1260 178 1395 215 1588 174" stroke-width="1.7"/>
    <path d="M122 220 C316 194 402 242 562 268 C748 297 892 176 1052 184 C1268 196 1402 234 1598 192" stroke-width="1.5"/>
  </g>
  <g fill="#000" opacity="0.48">
    <circle cx="510" cy="470" r="7"/>
    <circle cx="982" cy="312" r="5"/>
    <circle cx="1042" cy="705" r="6"/>
    <circle cx="492" cy="170" r="4"/>
    <circle cx="975" cy="778" r="4"/>
    <circle cx="1008" cy="392" r="3"/>
  </g>
</svg>
